# xmcd
#
# Track frame offsets: 
#        150
#        12616
#        27681
#        41346
#        55735
#        71687
#        82200
#        98250
#        111865
#        128026
#        142670
#
# Disc length: 2204 seconds
#
# Revision: 0
# Processed by: cddbd v1.5.2PL0 Copyright (c) Steve Scherf et al.
# Submitted via: ExactAudioCopy v0.99pb4
#
DISCID=8e089a0b
DTITLE=Alecia McRight - For Love's Sake
DYEAR=1900
DGENRE=Country
TTITLE0=I'll Stay Around
TTITLE1=Red, White And Blue
TTITLE2=If Your Heart Could Take
TTITLE3=My First Mistake
TTITLE4=Jealous Heart
TTITLE5=Think Of What You've Done
TTITLE6=Paper And Pen
TTITLE7=But I Do
TTITLE8=For Loves Sake (Duet With Carl Jackson)
TTITLE9=You Don't Have To Go Home
TTITLE10=Blame It On The Train
EXTD=
EXTT0=
EXTT1=
EXTT2=
EXTT3=
EXTT4=
EXTT5=
EXTT6=
EXTT7=
EXTT8=
EXTT9=
EXTT10=
PLAYORDER=
